<svg width="15" height="15" viewBox="0 0 15 15" fill="none" xmlns="http://www.w3.org/2000/svg">
<path d="M12.1876 13.5938H12.1079C2.89695 13.0641 1.58913 5.29219 1.40632 2.92031C1.39159 2.7359 1.41339 2.55039 1.47048 2.37441C1.52757 2.19844 1.61882 2.03545 1.739 1.89481C1.85918 1.75416 2.00594 1.6386 2.17086 1.55477C2.33577 1.47093 2.51561 1.42046 2.70007 1.40625H5.28288C5.47064 1.40607 5.65413 1.46227 5.80959 1.56758C5.96504 1.67288 6.08529 1.82244 6.15476 1.99688L6.86726 3.75C6.93586 3.92041 6.95288 4.10722 6.91622 4.28723C6.87955 4.46724 6.7908 4.6325 6.66101 4.7625L5.66257 5.77031C5.81853 6.6566 6.24297 7.47359 6.87846 8.11076C7.51395 8.74793 8.32982 9.17452 9.2157 9.33281L10.2329 8.325C10.3648 8.19664 10.5317 8.10996 10.7125 8.07578C10.8934 8.04161 11.0804 8.06144 11.2501 8.13281L13.0173 8.84063C13.1891 8.91229 13.3356 9.03348 13.4383 9.18875C13.541 9.34403 13.5951 9.52635 13.5938 9.7125V12.1875C13.5938 12.5605 13.4457 12.9181 13.1819 13.1819C12.9182 13.4456 12.5605 13.5938 12.1876 13.5938ZM2.81257 2.34375C2.68825 2.34375 2.56902 2.39314 2.48111 2.48104C2.39321 2.56895 2.34382 2.68818 2.34382 2.8125V2.85C2.55945 5.625 3.94226 12.1875 12.1594 12.6562C12.221 12.6601 12.2828 12.6517 12.3411 12.6316C12.3994 12.6115 12.4532 12.58 12.4994 12.5391C12.5455 12.4982 12.5832 12.4485 12.6101 12.393C12.637 12.3375 12.6527 12.2772 12.6563 12.2156V9.7125L10.8891 9.00469L9.54382 10.3406L9.31882 10.3125C5.2407 9.80156 4.68757 5.72344 4.68757 5.68125L4.65945 5.45625L5.9907 4.11094L5.28757 2.34375H2.81257Z" fill="black"/>
</svg>
